<?xml version="1.0" standalone="no"?>
<!DOCTYPE svg PUBLIC "-//W3C//DTD SVG 20010904//EN"
 "http://www.w3.org/TR/2001/REC-SVG-20010904/DTD/svg10.dtd">
<svg version="1.0" xmlns="http://www.w3.org/2000/svg"
 width="70.000000pt" height="70.000000pt" viewBox="0 0 70.000000 70.000000"
 preserveAspectRatio="xMidYMid meet">
<metadata>
Created by potrace 1.11, written by Peter Selinger 2001-2013
</metadata>
<g transform="translate(0.000000,70.000000) scale(0.100000,-0.100000)"
fill="#000000" stroke="none">
<path d="M0 350 l0 -350 350 0 350 0 0 350 0 350 -142 -1 c-83 0 -132 -4 -118
-8 93 -29 168 -96 214 -191 27 -56 31 -76 31 -145 0 -69 -4 -89 -31 -146 -40
-83 -90 -133 -171 -171 -58 -27 -71 -30 -146 -26 -138 7 -230 69 -290 196 -28
58 -32 78 -32 147 0 69 4 89 31 145 47 96 121 162 214 191 14 4 -35 8 -117 8
l-143 1 0 -350z"/>
<path d="M325 643 c-22 -2 -47 -6 -55 -10 -8 -3 -24 -8 -35 -10 -63 -12 -143
-103 -166 -188 -15 -53 -6 -162 16 -204 l17 -35 29 35 c29 35 36 30 19 -15
-11 -30 -9 -31 158 -92 111 -41 137 -42 182 -9 19 14 42 25 52 25 34 0 98 123
98 190 0 23 -4 25 -50 27 -66 4 -90 27 -90 88 0 55 -25 133 -53 163 -11 12
-16 22 -11 23 5 0 0 4 -11 9 -21 9 -32 9 -100 3z"/>
<path d="M597 466 c-3 -8 1 -20 9 -26 12 -10 14 -8 14 14 0 28 -14 35 -23 12z"/>
</g>
</svg>
